<svg width="186" height="167" viewBox="0 0 186 167" fill="none" xmlns="http://www.w3.org/2000/svg">
<g clip-path="url(#clip0_274_404)">
<path d="M184.152 136.97C182.462 147.369 174.847 155.421 166.741 162.457C165.609 163.44 164.474 164.404 163.337 165.348C163.329 165.353 163.321 165.361 163.313 165.366C163.258 165.411 163.204 165.457 163.153 165.502C162.918 165.696 162.683 165.891 162.45 166.083L162.597 166.129L163.052 166.269C162.895 166.226 162.741 166.185 162.585 166.142C162.539 166.129 162.49 166.118 162.444 166.105C157.069 164.653 151.585 163.059 147.191 159.658C142.632 156.125 139.493 150.103 141.065 144.554C141.272 143.827 141.559 143.125 141.922 142.462C142.07 142.184 142.233 141.916 142.405 141.651C143.444 140.019 144.899 138.694 146.62 137.81C148.341 136.927 150.266 136.518 152.198 136.626C154.129 136.733 155.997 137.353 157.61 138.422C159.222 139.49 160.521 140.969 161.372 142.706C161.296 136.592 155.711 132.134 150.473 128.978C145.233 125.825 139.3 122.418 137.652 116.527C136.734 113.249 137.507 109.873 139.31 107.02C139.366 106.933 139.422 106.847 139.48 106.762C141.692 103.426 145.081 101.048 148.97 100.102C156.226 98.4557 163.831 101.488 169.783 105.956C179.362 113.144 186.073 125.146 184.152 136.97Z" fill="#F2F2F2"/>
<path d="M168.761 125.482C170.435 127.507 171.805 129.765 172.827 132.185C173.706 134.352 174.256 136.638 174.458 138.968C174.899 143.754 173.991 148.591 172.181 153.02C170.772 156.382 168.944 159.553 166.741 162.457C165.609 163.44 164.474 164.404 163.337 165.348C163.329 165.353 163.321 165.361 163.313 165.366C163.259 165.411 163.204 165.457 163.153 165.502C162.918 165.696 162.684 165.891 162.451 166.083L162.597 166.129L163.052 166.269C162.896 166.226 162.742 166.185 162.585 166.142C162.539 166.129 162.49 166.118 162.444 166.105C162.451 162.282 161.542 158.514 159.793 155.116C158.043 151.717 155.505 148.788 152.39 146.572C149.273 144.396 145.687 142.988 141.922 142.462C142.07 142.184 142.234 141.916 142.406 141.651C143.862 141.877 145.296 142.231 146.69 142.71C151.673 144.406 155.976 147.662 158.964 151.994C161.652 155.932 163.16 160.554 163.312 165.319C163.5 165.102 163.687 164.882 163.869 164.664C167.328 160.565 170.287 155.98 172.051 150.888C173.593 146.569 174.05 141.938 173.381 137.401C172.594 132.462 170.064 128.103 166.721 124.445C163.14 120.531 158.84 117.204 154.34 114.414C149.731 111.551 144.788 109.263 139.623 107.601C139.506 107.563 139.409 107.481 139.35 107.373C139.292 107.265 139.278 107.139 139.31 107.02C139.331 106.915 139.392 106.822 139.481 106.762C139.527 106.735 139.578 106.719 139.631 106.715C139.685 106.711 139.738 106.719 139.788 106.738C140.425 106.944 141.059 107.154 141.69 107.376C146.944 109.232 151.946 111.733 156.583 114.822C161.061 117.797 165.36 121.294 168.761 125.482Z" fill="white"/>
<path d="M77.3982 101.735C76.8816 101.734 76.3846 101.537 76.0078 101.184C75.631 100.83 75.4026 100.347 75.3689 99.8313L75.0666 95.2163C75.0313 94.6772 75.2116 94.1462 75.5678 93.7401C75.924 93.334 76.4269 93.086 76.9659 93.0507L113.123 90.6828C113.693 90.6452 114.265 90.7202 114.806 90.9037C115.347 91.0872 115.846 91.3755 116.276 91.7521C116.706 92.1287 117.057 92.5863 117.31 93.0987C117.562 93.6111 117.712 94.1683 117.749 94.7385C117.786 95.3086 117.711 95.8805 117.527 96.4215C117.344 96.9624 117.055 97.4619 116.678 97.8914C116.301 98.3208 115.844 98.6718 115.331 98.9243C114.818 99.1768 114.261 99.3258 113.691 99.3628L77.5344 101.731C77.4889 101.733 77.4435 101.735 77.3982 101.735Z" fill="#338499"/>
<path d="M84.5279 102.33C84.0012 102.329 83.4953 102.124 83.1161 101.759C82.7369 101.393 82.5137 100.895 82.4935 100.369L82.2358 93.4759C82.2258 93.2086 82.2686 92.942 82.3616 92.6913C82.4547 92.4405 82.5962 92.2105 82.7782 92.0145C82.9601 91.8184 83.1789 91.6601 83.422 91.5486C83.6652 91.4371 83.9279 91.3746 84.1952 91.3646L113.928 90.2534C114.468 90.2332 114.993 90.4283 115.389 90.7958C115.785 91.1632 116.019 91.6729 116.039 92.2127L116.297 99.1058C116.307 99.3731 116.264 99.6398 116.171 99.8905C116.078 100.141 115.937 100.371 115.755 100.567C115.573 100.763 115.354 100.922 115.111 101.033C114.868 101.145 114.605 101.207 114.338 101.217L84.6049 102.328C84.5792 102.329 84.5534 102.33 84.5279 102.33Z" fill="#2F2E41"/>
<path d="M119.37 165.871H114.745C114.205 165.871 113.687 165.656 113.305 165.274C112.923 164.892 112.709 164.375 112.708 163.835V125.288C112.709 124.748 112.923 124.23 113.305 123.849C113.687 123.467 114.205 123.252 114.745 123.251H119.37C119.91 123.252 120.427 123.467 120.809 123.849C121.191 124.23 121.406 124.748 121.407 125.288V163.835C121.406 164.375 121.191 164.892 120.809 165.274C120.427 165.656 119.91 165.871 119.37 165.871Z" fill="#2F2E41"/>
<path d="M98.8415 145.496L94.8864 143.099C94.4249 142.818 94.0935 142.366 93.9649 141.842C93.8363 141.317 93.921 140.763 94.2004 140.301L114.181 107.337C114.461 106.876 114.913 106.544 115.438 106.416C115.962 106.287 116.516 106.372 116.979 106.651L120.934 109.049C121.395 109.329 121.726 109.781 121.855 110.306C121.984 110.83 121.899 111.384 121.62 111.846L101.639 144.81C101.359 145.271 100.907 145.603 100.382 145.731C99.8577 145.86 99.3036 145.775 98.8415 145.496Z" fill="#2F2E41"/>
<path d="M112.345 83.0238C121.171 83.0238 128.326 75.8689 128.326 67.0429C128.326 58.2169 121.171 51.062 112.345 51.062C103.519 51.062 96.3645 58.2169 96.3645 67.0429C96.3645 75.8689 103.519 83.0238 112.345 83.0238Z" fill="#338499"/>
<path d="M103.695 72.4993C103.181 72.3304 102.709 72.0534 102.311 71.6869C102.047 71.4252 101.844 71.109 101.715 70.7605C101.587 70.412 101.536 70.0395 101.566 69.6692C101.583 69.4054 101.66 69.149 101.793 68.9201C101.925 68.6912 102.108 68.496 102.328 68.3497C102.9 67.9831 103.664 67.982 104.442 68.325L104.413 62.0862L105.04 62.0833L105.074 69.4175L104.591 69.1138C104.032 68.7622 103.232 68.5147 102.667 68.8772C102.527 68.973 102.412 69.0997 102.329 69.2474C102.246 69.3952 102.199 69.5601 102.19 69.7292C102.169 70.005 102.207 70.2821 102.303 70.5417C102.399 70.8013 102.549 71.0373 102.744 71.2335C103.436 71.8946 104.446 72.1013 105.597 72.286L105.498 72.9047C104.886 72.8237 104.283 72.688 103.695 72.4993Z" fill="#2F2E41"/>
<path d="M97.9526 61.771L97.8706 62.3922L101.217 62.8341L101.299 62.2129L97.9526 61.771Z" fill="#2F2E41"/>
<path d="M108.515 63.1656L108.433 63.7869L111.779 64.2288L111.861 63.6076L108.515 63.1656Z" fill="#2F2E41"/>
<path d="M125.69 135.63H98.7414C98.0352 135.629 97.3582 135.349 96.8589 134.849C96.3595 134.35 96.0787 133.673 96.0779 132.967L101.719 89.7041C101.724 89.0011 102.007 88.3286 102.505 87.8333C103.004 87.338 103.679 87.0603 104.382 87.0608H113.945C117.765 87.0651 121.427 88.5845 124.128 91.2855C126.829 93.9866 128.349 97.6488 128.353 101.469V132.967C128.352 133.673 128.071 134.35 127.572 134.849C127.073 135.349 126.396 135.629 125.69 135.63Z" fill="#2F2E41"/>
<path d="M118.904 133.324C118.74 133.681 118.476 133.984 118.144 134.195C117.813 134.406 117.427 134.517 117.034 134.514L112.409 134.474C112.141 134.471 111.877 134.416 111.631 134.312C111.385 134.207 111.161 134.055 110.974 133.865C110.786 133.674 110.638 133.448 110.538 133.2C110.438 132.952 110.388 132.687 110.39 132.419L110.704 96.1864C110.709 95.6153 110.826 95.0508 111.05 94.525C111.273 93.9993 111.597 93.5226 112.005 93.1223C112.412 92.7219 112.894 92.4058 113.424 92.1918C113.953 91.9778 114.52 91.8702 115.091 91.8752C115.662 91.8801 116.226 91.9975 116.752 92.2206C117.278 92.4438 117.755 92.7683 118.155 93.1756C118.555 93.5829 118.871 94.0652 119.085 94.5947C119.299 95.1242 119.407 95.6907 119.402 96.2618L119.088 132.495C119.086 132.781 119.023 133.064 118.904 133.324Z" fill="#338499"/>
<path d="M120.947 123.651C120.783 124.009 120.519 124.311 120.188 124.522C119.856 124.733 119.47 124.844 119.077 124.841L111.177 124.772C110.637 124.767 110.122 124.548 109.743 124.163C109.365 123.778 109.154 123.258 109.159 122.718L109.417 92.9658C109.419 92.6983 109.474 92.4339 109.578 92.1877C109.683 91.9415 109.835 91.7182 110.025 91.5307C110.216 91.3433 110.442 91.1952 110.69 91.095C110.938 90.9948 111.203 90.9444 111.471 90.9467L119.37 91.0152C119.638 91.0175 119.902 91.0725 120.148 91.177C120.394 91.2815 120.618 91.4334 120.805 91.6242C120.993 91.815 121.141 92.0408 121.241 92.2888C121.341 92.5368 121.391 92.8021 121.389 93.0696L121.131 122.822C121.129 123.108 121.066 123.391 120.947 123.651Z" fill="#2F2E41"/>
<path d="M112.644 57.5646C110.508 55.7968 107.652 57.4688 105.236 57.2315C102.925 57.0045 101.065 54.9704 100.558 52.7815C99.9662 50.2278 101.248 47.6338 103.179 45.9979C105.295 44.2062 108.134 43.6495 110.84 43.9221C113.942 44.2346 116.8 45.6233 119.372 47.3198C121.855 48.9053 124.145 50.7726 126.198 52.8845C128.038 54.8402 129.609 57.1832 130.148 59.8517C130.637 62.2768 130.35 64.9799 128.95 67.0687C128.208 68.1398 127.201 69.0015 126.029 69.5705C124.807 70.1996 123.499 70.6577 122.317 71.3653C120.53 72.4351 118.814 74.6156 119.423 76.8393C119.553 77.3252 119.801 77.7714 120.145 78.1388C120.558 78.58 121.276 77.973 120.862 77.5306C120.135 76.7537 120.143 75.699 120.504 74.748C120.935 73.676 121.718 72.7822 122.723 72.2129C123.961 71.4739 125.333 71.0062 126.603 70.3304C127.819 69.7119 128.868 68.8089 129.66 67.698C131.154 65.5363 131.56 62.7521 131.163 60.1912C130.734 57.42 129.258 54.9223 127.428 52.8406C125.437 50.575 123.008 48.6714 120.531 46.9669C117.873 45.138 114.946 43.6046 111.729 43.091C108.94 42.6458 105.934 43.0097 103.533 44.5703C101.291 46.027 99.5979 48.4917 99.4765 51.2122C99.4379 52.4497 99.7298 53.6751 100.322 54.7623C100.914 55.8496 101.785 56.7594 102.846 57.3981C103.934 58.0213 105.19 58.2872 106.436 58.1584C107.77 58.0475 109.099 57.6133 110.444 57.7013C111.053 57.7266 111.637 57.9497 112.108 58.3368C112.574 58.723 113.107 57.9477 112.644 57.5647V57.5646Z" fill="#2F2E41"/>
<path d="M93.853 140.858C93.8588 140.823 93.8655 140.787 93.8731 140.752C93.9288 140.49 94.0359 140.242 94.1882 140.022C94.3404 139.802 94.5348 139.615 94.7601 139.47L98.6466 136.963C99.1007 136.671 99.6522 136.571 100.18 136.685C100.708 136.799 101.169 137.118 101.462 137.571L113.451 156.159C113.744 156.613 113.845 157.165 113.731 157.693C113.617 158.221 113.298 158.682 112.844 158.975L108.957 161.481C108.503 161.774 107.952 161.874 107.424 161.76C106.896 161.646 106.435 161.327 106.142 160.874L94.1524 142.286C93.8784 141.864 93.7717 141.355 93.853 140.858Z" fill="#2F2E41"/>
<path d="M79.2972 18.3545C78.9986 17.6454 78.4987 17.0395 77.8592 16.6117C77.2198 16.1839 76.469 15.953 75.6997 15.9475H3.89252C2.86033 15.9481 1.87057 16.3583 1.1407 17.0882C0.410835 17.8181 0.000554625 18.8078 0 19.84V110.683C0.000554625 111.715 0.410835 112.705 1.1407 113.435C1.87057 114.164 2.86033 114.575 3.89252 114.575H75.7023C76.7342 114.574 77.7235 114.163 78.4532 113.434C79.1829 112.704 79.5935 111.715 79.5948 110.683V19.84C79.5965 19.3301 79.4962 18.825 79.2998 18.3545H79.2972ZM78.7278 110.683C78.7269 111.486 78.4075 112.255 77.8399 112.823C77.2722 113.391 76.5025 113.71 75.6997 113.711H3.89252C3.08955 113.711 2.31949 113.392 1.75166 112.824C1.18382 112.256 0.864688 111.486 0.864415 110.683V19.8405C0.865509 19.0378 1.18489 18.2682 1.75254 17.7006C2.32018 17.1329 3.08975 16.8135 3.89252 16.8124H75.7023C76.307 16.8147 76.8974 16.9972 77.398 17.3364C77.8986 17.6757 78.2868 18.1564 78.513 18.7173C78.557 18.829 78.595 18.9431 78.6269 19.0589C78.6956 19.3138 78.7304 19.5766 78.7304 19.8405L78.7278 110.683Z" fill="#3F3D56"/>
<path d="M64.3119 37.3952H42.6826C42.2236 37.3952 41.7835 37.2128 41.459 36.8883C41.1345 36.5638 40.9521 36.1237 40.9521 35.6647C40.9521 35.2058 41.1345 34.7657 41.459 34.4412C41.7835 34.1166 42.2236 33.9343 42.6826 33.9343H64.3119C64.7709 33.9343 65.211 34.1166 65.5355 34.4412C65.86 34.7657 66.0423 35.2058 66.0423 35.6647C66.0423 36.1237 65.86 36.5638 65.5355 36.8883C65.211 37.2128 64.7709 37.3952 64.3119 37.3952Z" fill="#3F3D56"/>
<path d="M64.312 46.4795H42.6827C42.4552 46.4798 42.23 46.4353 42.0198 46.3484C41.8096 46.2616 41.6185 46.1342 41.4576 45.9735C41.2967 45.8128 41.169 45.6219 41.0819 45.4118C40.9948 45.2017 40.95 44.9765 40.95 44.7491C40.95 44.5216 40.9948 44.2964 41.0819 44.0864C41.169 43.8763 41.2967 43.6854 41.4576 43.5247C41.6185 43.364 41.8096 43.2366 42.0198 43.1497C42.23 43.0629 42.4552 43.0184 42.6827 43.0187H64.312C64.5395 43.0184 64.7647 43.0629 64.9749 43.1497C65.1851 43.2366 65.3762 43.364 65.5371 43.5247C65.698 43.6854 65.8257 43.8763 65.9128 44.0864C65.9999 44.2964 66.0448 44.5216 66.0448 44.7491C66.0448 44.9765 65.9999 45.2017 65.9128 45.4118C65.8257 45.6219 65.698 45.8128 65.5371 45.9735C65.3762 46.1342 65.1851 46.2616 64.9749 46.3484C64.7647 46.4353 64.5395 46.4798 64.312 46.4795Z" fill="#3F3D56"/>
<path d="M31.5847 51.6521H15.7781C15.2619 51.6515 14.7671 51.4462 14.4021 51.0813C14.0371 50.7163 13.8318 50.2214 13.8313 49.7053V31.0522C13.8318 30.5361 14.0371 30.0412 14.4021 29.6763C14.7671 29.3113 15.2619 29.106 15.7781 29.1055H31.5847C32.1009 29.106 32.5957 29.3113 32.9607 29.6763C33.3257 30.0412 33.5309 30.5361 33.5315 31.0522V49.7053C33.5309 50.2214 33.3257 50.7163 32.9607 51.0813C32.5957 51.4462 32.1009 51.6515 31.5847 51.6521Z" fill="#338499"/>
<path d="M64.1619 65.0808H15.2797C14.8208 65.0808 14.3807 64.8985 14.0561 64.574C13.7316 64.2495 13.5493 63.8093 13.5493 63.3504C13.5493 62.8915 13.7316 62.4513 14.0561 62.1268C14.3807 61.8023 14.8208 61.62 15.2797 61.62H64.1619C64.6209 61.62 65.061 61.8023 65.3855 62.1268C65.71 62.4513 65.8924 62.8915 65.8924 63.3504C65.8924 63.8093 65.71 64.2495 65.3855 64.574C65.061 64.8985 64.6209 65.0808 64.1619 65.0808Z" fill="#CCCCCC"/>
<path d="M64.1619 74.1651H15.2797C14.8208 74.1651 14.3807 73.9827 14.0561 73.6582C13.7316 73.3337 13.5493 72.8936 13.5493 72.4346C13.5493 71.9757 13.7316 71.5356 14.0561 71.211C14.3807 70.8865 14.8208 70.7042 15.2797 70.7042H64.1619C64.6209 70.7042 65.061 70.8865 65.3855 71.211C65.71 71.5356 65.8924 71.9757 65.8924 72.4346C65.8924 72.8936 65.71 73.3337 65.3855 73.6582C65.061 73.9827 64.6209 74.1651 64.1619 74.1651Z" fill="#CCCCCC"/>
<path d="M64.1618 83.2493H15.2796C14.8211 83.2487 14.3815 83.0661 14.0575 82.7416C13.7335 82.4172 13.5515 81.9774 13.5515 81.5189C13.5515 81.0603 13.7335 80.6205 14.0575 80.2961C14.3815 79.9716 14.8211 79.7891 15.2796 79.7885H64.1618C64.3893 79.7881 64.6145 79.8327 64.8247 79.9195C65.0349 80.0063 65.226 80.1337 65.3869 80.2945C65.5478 80.4552 65.6755 80.646 65.7626 80.8561C65.8497 81.0662 65.8946 81.2914 65.8946 81.5189C65.8946 81.7463 65.8497 81.9715 65.7626 82.1816C65.6755 82.3917 65.5478 82.5826 65.3869 82.7433C65.226 82.904 65.0349 83.0314 64.8247 83.1182C64.6145 83.205 64.3893 83.2496 64.1618 83.2493Z" fill="#CCCCCC"/>
<path d="M64.1619 92.3336H15.2797C14.8208 92.3336 14.3807 92.1513 14.0561 91.8268C13.7316 91.5023 13.5493 91.0622 13.5493 90.6032C13.5493 90.1443 13.7316 89.7041 14.0561 89.3796C14.3807 89.0551 14.8208 88.8728 15.2797 88.8728H64.1619C64.6209 88.8728 65.061 89.0551 65.3855 89.3796C65.71 89.7041 65.8924 90.1443 65.8924 90.6032C65.8924 91.0622 65.71 91.5023 65.3855 91.8268C65.061 92.1513 64.6209 92.3336 64.1619 92.3336Z" fill="#CCCCCC"/>
<path d="M64.1619 101.418H15.2797C14.8208 101.418 14.3807 101.236 14.0561 100.911C13.7316 100.587 13.5493 100.146 13.5493 99.6874C13.5493 99.2285 13.7316 98.7884 14.0561 98.4639C14.3807 98.1393 14.8208 97.957 15.2797 97.957H64.1619C64.6209 97.957 65.061 98.1393 65.3855 98.4639C65.71 98.7884 65.8924 99.2285 65.8924 99.6874C65.8924 100.146 65.71 100.587 65.3855 100.911C65.061 101.236 64.6209 101.418 64.1619 101.418Z" fill="#CCCCCC"/>
<path d="M79.8341 33.3991C89.057 33.3991 96.5336 25.9224 96.5336 16.6995C96.5336 7.47664 89.057 0 79.8341 0C70.6112 0 63.1345 7.47664 63.1345 16.6995C63.1345 25.9224 70.6112 33.3991 79.8341 33.3991Z" fill="#338499"/>
<path d="M78.1792 23.07C77.8035 23.0706 77.4378 22.949 77.1372 22.7237L77.1186 22.7097L73.1939 19.7075C73.0122 19.5681 72.8596 19.3943 72.745 19.196C72.6304 18.9977 72.556 18.7788 72.526 18.5517C72.496 18.3247 72.511 18.0939 72.5702 17.8727C72.6294 17.6514 72.7316 17.444 72.8709 17.2622C73.0103 17.0805 73.1841 16.9279 73.3824 16.8133C73.5807 16.6987 73.7996 16.6243 74.0267 16.5943C74.2537 16.5643 74.4845 16.5793 74.7057 16.6385C74.927 16.6977 75.1344 16.7999 75.3162 16.9392L77.8583 18.8886L83.8653 11.0518C84.0046 10.8701 84.1783 10.7176 84.3765 10.6031C84.5747 10.4885 84.7936 10.4141 85.0205 10.3842C85.2475 10.3542 85.4781 10.3692 85.6993 10.4284C85.9205 10.4875 86.1278 10.5897 86.3095 10.7289L86.31 10.7293L86.2727 10.7811L86.311 10.7293C86.6776 11.011 86.9174 11.4267 86.9778 11.885C87.0383 12.3433 86.9144 12.8069 86.6335 13.1741L79.5679 22.3877C79.4045 22.6 79.1943 22.7718 78.9537 22.8897C78.7132 23.0077 78.4486 23.0687 78.1807 23.0679L78.1792 23.07Z" fill="white"/>
<path d="M185.489 166.41H71.8734C71.7916 166.41 71.713 166.377 71.6551 166.319C71.5972 166.262 71.5647 166.183 71.5647 166.101C71.5647 166.019 71.5972 165.941 71.6551 165.883C71.713 165.825 71.7916 165.792 71.8734 165.792H185.489C185.571 165.792 185.649 165.825 185.707 165.883C185.765 165.941 185.798 166.019 185.798 166.101C185.798 166.183 185.765 166.262 185.707 166.319C185.649 166.377 185.571 166.41 185.489 166.41Z" fill="#3F3D56"/>
</g>
<defs>
<clipPath id="clip0_274_404">
<rect width="185.798" height="166.41" fill="white"/>
</clipPath>
</defs>
</svg>
