<svg width="912" height="452" viewBox="0 0 912 452" fill="none" xmlns="http://www.w3.org/2000/svg">
<g clip-path="url(#clip0_26_1860)">
<path d="M522.708 441.731C517.066 441.727 511.656 439.483 507.668 435.492C503.68 431.502 501.439 426.09 501.439 420.448C501.439 414.806 503.68 409.395 507.668 405.404C511.656 401.413 517.066 399.169 522.708 399.165H838.843C837.253 396.246 834.906 393.809 832.049 392.111C829.191 390.412 825.93 389.515 822.606 389.512H194.213C186.015 389.521 178.156 392.785 172.362 398.586C166.569 404.386 163.315 412.25 163.316 420.448C163.32 428.645 166.575 436.505 172.368 442.305C178.16 448.105 186.017 451.37 194.213 451.384H822.605C825.929 451.382 829.191 450.484 832.049 448.785C834.906 447.087 837.253 444.65 838.843 441.731L522.708 441.731Z" fill="#CCCCCC"/>
<path d="M839.263 410.892H538.692C538.232 410.891 537.791 410.708 537.466 410.382C537.141 410.056 536.959 409.615 536.959 409.155C536.959 408.695 537.141 408.254 537.466 407.928C537.791 407.602 538.232 407.419 538.692 407.418H839.263C839.723 407.419 840.164 407.602 840.488 407.928C840.813 408.254 840.996 408.695 840.996 409.155C840.996 409.615 840.813 410.056 840.488 410.382C840.164 410.708 839.723 410.891 839.263 410.892Z" fill="#CCCCCC"/>
<path d="M839.263 422.186H538.692C538.231 422.186 537.789 422.003 537.463 421.677C537.138 421.351 536.955 420.909 536.955 420.448C536.955 419.987 537.138 419.545 537.463 419.22C537.789 418.894 538.231 418.711 538.692 418.711H839.263C839.723 418.711 840.165 418.894 840.491 419.22C840.817 419.545 841 419.987 841 420.448C841 420.909 840.817 421.351 840.491 421.677C840.165 422.003 839.723 422.186 839.263 422.186Z" fill="#CCCCCC"/>
<path d="M839.263 433.479H538.692C538.232 433.478 537.791 433.294 537.466 432.968C537.141 432.643 536.959 432.201 536.959 431.741C536.959 431.281 537.141 430.84 537.466 430.514C537.791 430.189 538.232 430.005 538.692 430.004H839.263C839.723 430.005 840.164 430.189 840.488 430.514C840.813 430.84 840.996 431.281 840.996 431.741C840.996 432.201 840.813 432.643 840.488 432.968C840.164 433.294 839.723 433.478 839.263 433.479Z" fill="#CCCCCC"/>
<path d="M441.05 381.791C435.408 381.787 429.998 379.543 426.01 375.552C422.022 371.561 419.781 366.15 419.781 360.508C419.781 354.866 422.022 349.454 426.01 345.463C429.998 341.473 435.408 339.229 441.05 339.225H757.185C755.595 336.306 753.248 333.869 750.391 332.17C747.534 330.472 744.272 329.574 740.948 329.572H112.556C104.357 329.581 96.4979 332.845 90.7043 338.645C84.9108 344.446 81.6569 352.309 81.6577 360.508C81.662 368.705 84.9174 376.565 90.7099 382.365C96.5024 388.164 104.359 391.429 112.556 391.444H740.948C744.272 391.441 747.534 390.544 750.391 388.845C753.248 387.147 755.595 384.71 757.185 381.791L441.05 381.791Z" fill="#338499"/>
<path d="M757.605 350.952H457.034C456.574 350.951 456.133 350.767 455.808 350.442C455.483 350.116 455.301 349.675 455.301 349.215C455.301 348.755 455.483 348.313 455.808 347.988C456.133 347.662 456.574 347.478 457.034 347.477H757.605C758.065 347.477 758.507 347.66 758.833 347.986C759.159 348.312 759.342 348.754 759.342 349.215C759.342 349.675 759.159 350.117 758.833 350.443C758.507 350.769 758.065 350.952 757.605 350.952Z" fill="#CCCCCC"/>
<path d="M757.605 362.245H457.034C456.573 362.245 456.131 362.062 455.806 361.736C455.48 361.41 455.297 360.969 455.297 360.508C455.297 360.047 455.48 359.605 455.806 359.279C456.131 358.953 456.573 358.77 457.034 358.77H757.605C758.065 358.77 758.507 358.953 758.833 359.279C759.159 359.605 759.342 360.047 759.342 360.508C759.342 360.969 759.159 361.41 758.833 361.736C758.507 362.062 758.065 362.245 757.605 362.245Z" fill="#CCCCCC"/>
<path d="M757.605 373.538H457.034C456.574 373.537 456.133 373.354 455.808 373.028C455.483 372.702 455.301 372.261 455.301 371.801C455.301 371.341 455.483 370.9 455.808 370.574C456.133 370.248 456.574 370.065 457.034 370.064H757.605C757.833 370.063 758.06 370.107 758.271 370.195C758.482 370.282 758.674 370.41 758.836 370.571C758.998 370.732 759.126 370.924 759.214 371.135C759.301 371.346 759.346 371.572 759.346 371.801C759.346 372.029 759.301 372.256 759.214 372.467C759.126 372.678 758.998 372.87 758.836 373.031C758.674 373.192 758.482 373.32 758.271 373.407C758.06 373.494 757.833 373.539 757.605 373.538Z" fill="#CCCCCC"/>
<path d="M359.392 319.851C353.75 319.847 348.34 317.603 344.352 313.612C340.364 309.621 338.124 304.21 338.124 298.567C338.124 292.925 340.364 287.514 344.352 283.523C348.34 279.532 353.75 277.288 359.392 277.284H675.527C673.937 274.365 671.59 271.929 668.733 270.23C665.876 268.532 662.614 267.634 659.29 267.631H30.8975C22.6991 267.64 14.8397 270.904 9.0462 276.705C3.25269 282.505 -0.00102004 290.369 2.39877e-07 298.567C0.00414805 306.764 3.25952 314.625 9.05191 320.424C14.8443 326.224 22.7007 329.489 30.8975 329.503H659.29C662.614 329.501 665.876 328.603 668.733 326.905C671.59 325.206 673.937 322.769 675.527 319.851L359.392 319.851Z" fill="#CCCCCC"/>
<path d="M675.947 289.012H375.376C374.916 289.011 374.475 288.827 374.15 288.501C373.825 288.176 373.643 287.734 373.643 287.274C373.643 286.814 373.825 286.373 374.15 286.047C374.475 285.722 374.916 285.538 375.376 285.537H675.947C676.408 285.537 676.849 285.72 677.175 286.046C677.501 286.372 677.684 286.814 677.684 287.274C677.684 287.735 677.501 288.177 677.175 288.503C676.849 288.829 676.408 289.012 675.947 289.012Z" fill="#CCCCCC"/>
<path d="M675.947 300.305H375.376C375.148 300.305 374.922 300.26 374.711 300.173C374.5 300.085 374.309 299.957 374.148 299.796C373.986 299.635 373.858 299.443 373.771 299.232C373.684 299.021 373.639 298.796 373.639 298.567C373.639 298.339 373.684 298.113 373.771 297.902C373.858 297.692 373.986 297.5 374.148 297.339C374.309 297.178 374.5 297.05 374.711 296.962C374.922 296.875 375.148 296.83 375.376 296.83H675.947C676.175 296.83 676.401 296.875 676.612 296.962C676.822 297.05 677.014 297.178 677.175 297.339C677.337 297.5 677.465 297.692 677.552 297.902C677.639 298.113 677.684 298.339 677.684 298.567C677.684 298.796 677.639 299.021 677.552 299.232C677.465 299.443 677.337 299.635 677.175 299.796C677.014 299.957 676.822 300.085 676.612 300.173C676.401 300.26 676.175 300.305 675.947 300.305Z" fill="#CCCCCC"/>
<path d="M675.947 311.598H375.376C374.915 311.598 374.473 311.415 374.148 311.089C373.822 310.763 373.639 310.321 373.639 309.861C373.639 309.4 373.822 308.958 374.148 308.632C374.473 308.306 374.915 308.123 375.376 308.123H675.947C676.175 308.123 676.401 308.168 676.612 308.255C676.822 308.343 677.014 308.471 677.175 308.632C677.337 308.793 677.465 308.985 677.552 309.196C677.639 309.406 677.684 309.632 677.684 309.861C677.684 310.089 677.639 310.315 677.552 310.525C677.465 310.736 677.337 310.928 677.175 311.089C677.014 311.25 676.822 311.378 676.612 311.466C676.401 311.553 676.175 311.598 675.947 311.598Z" fill="#CCCCCC"/>
<path d="M682.888 187.714C681.239 187.711 679.653 187.082 678.45 185.954C677.248 184.827 676.519 183.284 676.411 181.639L675.447 166.911C675.334 165.19 675.909 163.496 677.046 162.2C678.183 160.904 679.788 160.112 681.508 160L796.896 152.443C798.714 152.324 800.539 152.564 802.265 153.15C803.991 153.736 805.584 154.656 806.955 155.858C808.325 157.06 809.445 158.52 810.251 160.155C811.058 161.79 811.534 163.567 811.653 165.386C811.772 167.205 811.532 169.03 810.946 170.756C810.36 172.482 809.439 174.075 808.238 175.446C807.036 176.816 805.576 177.936 803.941 178.742C802.306 179.548 800.528 180.024 798.71 180.144L683.322 187.7C683.177 187.709 683.032 187.714 682.888 187.714Z" fill="#338499"/>
<path d="M705.64 189.613C703.959 189.61 702.345 188.957 701.135 187.79C699.924 186.624 699.212 185.035 699.148 183.355L698.325 161.357C698.293 160.504 698.43 159.653 698.727 158.853C699.024 158.053 699.476 157.319 700.056 156.693C700.637 156.067 701.335 155.562 702.111 155.206C702.887 154.85 703.725 154.651 704.578 154.619L799.464 151.073C801.187 151.008 802.865 151.631 804.129 152.804C805.392 153.976 806.138 155.603 806.203 157.326L807.025 179.324C807.057 180.177 806.92 181.028 806.623 181.828C806.326 182.628 805.875 183.362 805.294 183.988C804.713 184.613 804.015 185.119 803.239 185.474C802.464 185.83 801.625 186.03 800.772 186.062L705.886 189.608C705.804 189.611 705.722 189.613 705.64 189.613Z" fill="#2F2E41"/>
<path d="M816.832 392.394H802.072C800.349 392.392 798.697 391.706 797.478 390.488C796.259 389.269 795.574 387.617 795.572 385.894V262.879C795.574 261.156 796.259 259.504 797.478 258.285C798.697 257.067 800.349 256.381 802.072 256.379H816.832C818.555 256.381 820.207 257.067 821.426 258.285C822.644 259.504 823.33 261.156 823.332 262.879V385.894C823.33 387.617 822.644 389.269 821.426 390.488C820.207 391.706 818.555 392.392 816.832 392.394Z" fill="#2F2E41"/>
<path d="M751.319 327.369L738.697 319.719C737.225 318.824 736.167 317.381 735.757 315.707C735.346 314.034 735.616 312.266 736.508 310.791L800.272 205.593C801.167 204.12 802.61 203.063 804.284 202.652C805.957 202.242 807.725 202.512 809.2 203.404L821.822 211.054C823.295 211.949 824.352 213.392 824.763 215.065C825.173 216.739 824.903 218.507 824.011 219.982L760.247 325.18C759.352 326.653 757.91 327.71 756.236 328.121C754.562 328.531 752.794 328.261 751.319 327.369Z" fill="#2F2E41"/>
<path d="M794.415 128.001C822.581 128.001 845.415 105.167 845.415 77.0007C845.415 48.8342 822.581 26.0007 794.415 26.0007C766.248 26.0007 743.415 48.8342 743.415 77.0007C743.415 105.167 766.248 128.001 794.415 128.001Z" fill="#338499"/>
<path d="M766.809 94.4139C765.168 93.8749 763.662 92.9908 762.392 91.8212C761.55 90.9861 760.901 89.977 760.491 88.8648C760.08 87.7525 759.918 86.5639 760.015 85.3822C760.068 84.5402 760.315 83.722 760.737 82.9915C761.159 82.261 761.744 81.638 762.447 81.1711C764.271 80.0012 766.71 79.9977 769.194 81.0922L769.1 61.1825L771.1 61.173L771.21 84.5789L769.669 83.6096C767.882 82.4875 765.33 81.6976 763.527 82.8546C763.082 83.1603 762.712 83.5646 762.449 84.0362C762.185 84.5078 762.033 85.0338 762.006 85.5735C761.938 86.4538 762.061 87.3382 762.366 88.1667C762.671 88.9951 763.151 89.7481 763.773 90.3745C765.982 92.484 769.204 93.1437 772.878 93.7332L772.561 95.7077C770.609 95.4491 768.684 95.0161 766.809 94.4139Z" fill="#2F2E41"/>
<path d="M748.483 60.1766L748.221 62.1592L758.9 63.5695L759.162 61.5869L748.483 60.1766Z" fill="#2F2E41"/>
<path d="M782.191 64.6271L781.929 66.6096L792.608 68.0199L792.869 66.0374L782.191 64.6271Z" fill="#2F2E41"/>
<path d="M837 295.884H751C748.746 295.882 746.586 294.985 744.992 293.392C743.399 291.798 742.503 289.638 742.5 287.384L760.504 149.32C760.518 147.077 761.42 144.93 763.012 143.35C764.604 141.769 766.757 140.883 769 140.884H799.52C811.71 140.898 823.398 145.747 832.018 154.367C840.638 162.987 845.486 174.674 845.5 186.864V287.384C845.497 289.638 844.601 291.798 843.008 293.392C841.414 294.985 839.254 295.882 837 295.884Z" fill="#2F2E41"/>
<path d="M910.991 241.481C911.522 242.618 911.713 243.884 911.541 245.127C911.37 246.371 910.843 247.538 910.023 248.488L900.374 259.657C899.816 260.303 899.136 260.832 898.373 261.215C897.61 261.599 896.78 261.828 895.928 261.89C895.077 261.952 894.222 261.846 893.411 261.577C892.601 261.309 891.852 260.884 891.206 260.326L803.705 184.728C802.325 183.537 801.194 182.085 800.375 180.457C799.557 178.828 799.067 177.054 798.934 175.236C798.801 173.418 799.028 171.591 799.601 169.861C800.174 168.13 801.082 166.529 802.274 165.15C803.466 163.771 804.917 162.639 806.546 161.821C808.175 161.003 809.95 160.514 811.768 160.381C813.586 160.249 815.412 160.476 817.143 161.049C818.873 161.622 820.473 162.531 821.853 163.723L909.354 239.32C910.046 239.917 910.604 240.653 910.991 241.481Z" fill="#338499"/>
<path d="M891.678 216.534C892.209 217.67 892.401 218.937 892.229 220.18C892.057 221.423 891.53 222.59 890.711 223.54L874.229 242.617C873.101 243.92 871.502 244.722 869.783 244.847C868.065 244.972 866.367 244.411 865.061 243.286L793.211 181.21C792.565 180.652 792.035 179.972 791.652 179.209C791.268 178.446 791.039 177.616 790.977 176.764C790.915 175.913 791.021 175.058 791.289 174.247C791.558 173.437 791.983 172.688 792.541 172.042L809.022 152.965C809.581 152.319 810.26 151.79 811.023 151.406C811.786 151.023 812.617 150.794 813.468 150.732C814.319 150.67 815.174 150.776 815.985 151.044C816.795 151.313 817.544 151.738 818.19 152.296L890.041 214.372C890.734 214.969 891.291 215.706 891.678 216.534Z" fill="#2F2E41"/>
<path d="M795.369 46.7526C788.551 41.1108 779.437 46.4468 771.728 45.6895C764.351 44.9649 758.414 38.4735 756.797 31.4882C754.909 23.3386 759 15.0602 765.163 9.83956C771.914 4.12173 780.976 2.3449 789.612 3.21497C799.511 4.21217 808.63 8.64405 816.84 14.0582C824.762 19.1178 832.072 25.077 838.623 31.8168C844.494 38.0581 849.51 45.5352 851.228 54.0512C852.789 61.7904 851.873 70.4169 847.407 77.0831C845.037 80.5013 841.825 83.251 838.083 85.0669C834.183 87.0748 830.01 88.5365 826.237 90.7946C820.533 94.2089 815.059 101.168 817.001 108.264C817.417 109.815 818.209 111.239 819.306 112.411C820.623 113.819 822.915 111.882 821.594 110.47C819.274 107.991 819.299 104.625 820.453 101.59C821.829 98.169 824.325 95.3165 827.534 93.4999C831.483 91.1415 835.864 89.6489 839.916 87.4921C843.797 85.5184 847.143 82.6364 849.67 79.0914C854.438 72.1926 855.734 63.3075 854.468 55.1349C853.098 46.2909 848.389 38.3202 842.55 31.6766C836.195 24.4466 828.442 18.3716 820.537 12.932C812.055 7.09525 802.713 2.20188 792.447 0.562885C783.548 -0.857875 773.954 0.303207 766.291 5.28353C759.137 9.93233 753.734 17.7981 753.347 26.4799C753.223 30.4291 754.155 34.3399 756.045 37.8096C757.935 41.2794 760.715 44.1829 764.1 46.2213C767.571 48.2099 771.579 49.0585 775.558 48.6474C779.814 48.2937 784.054 46.9079 788.349 47.1887C790.291 47.2696 792.155 47.9816 793.656 49.2167C795.146 50.4494 796.846 47.9752 795.369 46.7526Z" fill="#2F2E41"/>
<path d="M735.399 312.568C735.418 312.455 735.439 312.343 735.464 312.23C735.641 311.395 735.983 310.603 736.469 309.901C736.955 309.199 737.575 308.6 738.294 308.139L750.697 300.139C752.146 299.207 753.906 298.887 755.591 299.251C757.275 299.614 758.747 300.631 759.683 302.078L797.944 361.398C798.878 362.846 799.199 364.607 798.835 366.292C798.471 367.977 797.453 369.449 796.005 370.383L783.601 378.383C782.152 379.316 780.392 379.635 778.708 379.272C777.023 378.908 775.552 377.891 774.616 376.444L736.355 317.125C735.48 315.777 735.14 314.153 735.399 312.568Z" fill="#2F2E41"/>
</g>
<defs>
<clipPath id="clip0_26_1860">
<rect width="911.602" height="451.384" fill="white"/>
</clipPath>
</defs>
</svg>
