<svg width="677" height="422" viewBox="0 0 677 422" fill="none" xmlns="http://www.w3.org/2000/svg">
<g clip-path="url(#clip0_26_1780)">
<path d="M99.1014 372.853C103.025 374.232 107.237 374.577 111.332 373.856C115.428 373.134 119.268 371.371 122.484 368.734C130.674 361.86 133.242 350.538 135.331 340.052L141.51 309.035L128.573 317.944C119.268 324.35 109.755 330.963 103.313 340.242C96.8709 349.521 94.0605 362.189 99.2348 372.23" fill="#E5E5E5"/>
<path d="M101.099 412.563C99.4706 400.7 97.7952 388.682 98.9402 376.692C99.9549 366.042 103.204 355.643 109.819 347.112C113.33 342.594 117.602 338.722 122.443 335.672C123.705 334.875 124.867 336.875 123.611 337.669C115.233 342.963 108.754 350.78 105.106 359.994C101.077 370.24 100.431 381.41 101.125 392.295C101.544 398.877 102.435 405.416 103.33 411.947C103.401 412.243 103.357 412.554 103.207 412.818C103.057 413.082 102.812 413.279 102.522 413.37C102.227 413.449 101.911 413.409 101.645 413.258C101.379 413.107 101.183 412.857 101.1 412.562L101.099 412.563Z" fill="#F1F1F1"/>
<path d="M112.82 393.527C114.502 396.085 116.815 398.166 119.535 399.571C122.256 400.975 125.292 401.655 128.351 401.545C136.216 401.172 142.77 395.686 148.669 390.475L166.121 375.066L154.571 374.514C146.265 374.116 137.744 373.743 129.833 376.307C121.921 378.871 114.625 385.033 113.179 393.222" fill="#E5E5E5"/>
<path d="M96.4961 419.383C104.336 405.512 113.428 390.095 129.677 385.167C134.194 383.802 138.931 383.313 143.632 383.726C145.114 383.854 144.744 386.138 143.265 386.011C135.385 385.357 127.52 387.438 120.994 391.903C114.714 396.178 109.824 402.121 105.686 408.422C103.151 412.283 100.88 416.307 98.6095 420.325C97.8839 421.61 95.7621 420.682 96.4961 419.383Z" fill="#F1F1F1"/>
<path d="M275.063 143.134V129.802L356.663 88.734L411.063 228.134L327.763 250.234L275.063 143.134Z" fill="#3F3D56"/>
<path d="M412.563 231.655L355.911 96.318L351.597 98.347L349.911 94.318L278.563 132.433L278.645 132.65L278.063 132.924L284.061 147.018L323.995 252.95L328.591 251.653L329.995 254.95L412.563 231.655Z" fill="#338499"/>
<path opacity="0.1" d="M329.995 253.95L412.563 230.655L355.91 95.318L278.063 131.924L329.995 253.95Z" fill="black"/>
<path d="M374.94 214.301C373.819 213.764 372.864 212.935 372.174 211.902C371.484 210.868 371.085 209.668 371.018 208.427L370.249 193.863C370.154 192.031 370.79 190.237 372.016 188.873C373.243 187.51 374.96 186.689 376.792 186.59L498.184 180.177C500.015 180.082 501.81 180.718 503.173 181.945C504.537 183.171 505.358 184.888 505.456 186.72L506.226 201.285C506.321 203.116 505.685 204.91 504.458 206.274C503.232 207.637 501.515 208.458 499.683 208.557L378.291 214.97C377.135 215.033 375.983 214.802 374.94 214.301Z" fill="#338499"/>
<path d="M458.622 214.586C457.441 214.015 456.446 213.121 455.753 212.007C455.059 210.894 454.696 209.606 454.704 208.294L454.56 180.872C454.567 179.963 454.753 179.064 455.107 178.227C455.461 177.39 455.977 176.631 456.625 175.993C457.272 175.356 458.039 174.852 458.882 174.511C459.725 174.17 460.626 173.998 461.535 174.006L516.914 178.888C518.38 178.897 520.231 181.168 521.718 182.991C522.185 183.564 522.588 184.058 522.883 184.357C523.012 184.488 523.135 184.624 523.251 184.763C524.309 186.024 524.883 187.62 524.868 189.266L524.746 203.85C524.729 205.684 523.985 207.436 522.677 208.722C521.37 210.008 519.605 210.723 517.771 210.71L461.607 215.268C460.574 215.264 459.554 215.032 458.622 214.586Z" fill="#2F2E41"/>
<path d="M503.567 138.498C532.776 138.498 556.454 114.819 556.454 85.6105C556.454 56.4017 532.776 32.7232 503.567 32.7232C474.358 32.7232 450.68 56.4017 450.68 85.6105C450.68 114.819 474.358 138.498 503.567 138.498Z" fill="#338499"/>
<path d="M493.257 421.444H478.672C476.838 421.442 475.08 420.713 473.783 419.416C472.486 418.119 471.757 416.361 471.755 414.527V290.989C471.757 289.155 472.486 287.397 473.783 286.1C475.08 284.803 476.838 284.074 478.672 284.072H493.257C495.091 284.074 496.849 284.803 498.146 286.1C499.443 287.397 500.173 289.155 500.175 290.989V414.527C500.173 416.361 499.443 418.119 498.146 419.416C496.849 420.713 495.091 421.442 493.257 421.444Z" fill="#338499"/>
<path d="M531.729 421.444H517.144C515.31 421.442 513.551 420.713 512.255 419.416C510.958 418.119 510.228 416.361 510.226 414.527V290.989C510.228 289.155 510.958 287.397 512.255 286.1C513.551 284.803 515.31 284.074 517.144 284.072H531.729C533.563 284.074 535.321 284.803 536.618 286.1C537.915 287.397 538.644 289.155 538.646 290.989V414.527C538.644 416.361 537.915 418.119 536.618 419.416C535.321 420.713 533.563 421.442 531.729 421.444Z" fill="#338499"/>
<path d="M474.188 105.212L474.133 103.236C477.81 103.134 481.052 102.903 483.487 101.123C484.178 100.59 484.745 99.9146 485.152 99.1425C485.558 98.3703 485.793 97.5197 485.841 96.6486C485.883 96.1164 485.803 95.5814 485.605 95.0853C485.408 94.5892 485.098 94.1454 484.701 93.7883C483.084 92.4227 480.483 92.8647 478.586 93.7343L476.951 94.4841L480.087 71.5674L482.045 71.8357L479.378 91.3294C481.954 90.5718 484.342 90.898 485.977 92.279C486.605 92.8271 487.098 93.5131 487.417 94.2831C487.735 95.0532 487.872 95.8866 487.815 96.7182C487.758 97.8886 487.445 99.0322 486.899 100.069C486.352 101.106 485.586 102.01 484.653 102.72C481.524 105.007 477.456 105.121 474.188 105.212Z" fill="#2F2E41"/>
<path d="M502.373 73.5168H491.729V75.4932H502.373V73.5168Z" fill="#2F2E41"/>
<path d="M468.774 73.5168H458.13V75.4932H468.774V73.5168Z" fill="#2F2E41"/>
<path d="M563.82 261.74L515.006 164.397H515.694C517.397 164.395 519.03 163.718 520.234 162.513C521.438 161.309 522.115 159.677 522.117 157.974V155.997C522.115 154.294 521.438 152.662 520.234 151.457C519.03 150.253 517.397 149.576 515.694 149.574H493.954C492.251 149.576 490.618 150.253 489.414 151.457C488.21 152.662 487.533 154.294 487.531 155.997V157.974C487.536 159.545 488.117 161.059 489.165 162.23C490.213 163.4 491.655 164.145 493.216 164.322L444.26 261.793C441.932 266.429 440.829 271.583 441.055 276.765C441.281 281.948 442.829 286.986 445.553 291.401C448.276 295.816 452.083 299.461 456.613 301.989C461.142 304.517 466.243 305.844 471.431 305.844H536.599C541.793 305.844 546.9 304.516 551.436 301.985C555.972 299.455 559.785 295.806 562.513 291.386C565.241 286.966 566.793 281.922 567.022 276.733C567.251 271.544 566.149 266.383 563.82 261.74Z" fill="#2F2E41"/>
<path d="M495.607 51.4556C482.847 60.2123 463.25 55.3845 457.466 40.59C456.055 36.9901 455.425 33.1311 455.619 29.2692C455.813 25.4073 456.826 21.6309 458.591 18.1905C462.593 10.6727 470.345 6.16077 478.5 4.47015C489.442 2.20191 500.755 5.24705 510.757 9.66989C511.117 9.85801 511.527 9.93097 511.93 9.87892C512.334 9.82687 512.711 9.65231 513.012 9.37881C522.566 1.7626 536.446 5.06946 546.241 10.3932C556.834 16.3422 565.793 24.8174 572.32 35.0648C578.977 45.2252 583.136 56.8155 584.458 68.8898C585.669 81.9387 583.537 95.0808 578.266 107.079C572.994 119.076 564.755 129.535 554.325 137.469C552.429 138.888 554.283 142.121 556.204 140.684C577.296 124.904 589.939 98.5724 588.443 72.1812C586.985 46.4452 572.275 21.6488 550.138 8.33432C538.389 1.26737 522.014 -2.52935 510.38 6.74627L512.636 6.4552C502.632 2.03148 491.672 -1.09119 480.648 0.359493C471.284 1.59172 462.083 6.08199 456.714 14.0792C454.356 17.7495 452.809 21.8813 452.176 26.198C451.544 30.5147 451.841 34.9166 453.048 39.1091C454.225 43.2533 456.348 47.0674 459.251 50.2506C462.154 53.4338 465.756 55.8992 469.775 57.4522C478.725 61.0041 489.493 60.1552 497.486 54.6704C499.449 53.3231 497.589 50.0952 495.607 51.4557L495.607 51.4556Z" fill="#2F2E41"/>
<path d="M429.563 249.655L372.911 114.318L368.244 115.505L366.911 112.318L280.563 137.433L280.692 137.764L280.063 137.924L286.137 151.728L325.995 253.95L330.973 253.629L331.995 255.95L429.563 249.655Z" fill="#338499"/>
<path d="M331.163 270.634L430.563 249.433L375.363 117.634L275.063 143.134L331.163 270.634Z" fill="#3F3D56"/>
<path d="M341.563 186.433C352.056 186.433 360.563 177.926 360.563 167.433C360.563 156.939 352.056 148.433 341.563 148.433C331.07 148.433 322.563 156.939 322.563 167.433C322.563 177.926 331.07 186.433 341.563 186.433Z" fill="white"/>
<path d="M494.993 191.819C495.712 191.853 496.42 191.999 497.094 192.25C497.947 192.564 498.729 193.044 499.395 193.662C500.061 194.28 500.598 195.024 500.974 195.851L507.048 209.111C507.81 210.779 507.879 212.681 507.24 214.4C506.601 216.119 505.306 217.515 503.639 218.28L393.12 268.902C391.451 269.664 389.549 269.733 387.83 269.094C386.111 268.455 384.716 267.16 383.95 265.494L377.877 252.234C377.114 250.565 377.045 248.663 377.684 246.944C378.323 245.225 379.618 243.83 381.285 243.064L491.804 192.442C492.802 191.983 493.896 191.769 494.993 191.819Z" fill="#338499"/>
<path d="M497.085 188.777C498.369 188.837 499.611 189.253 500.673 189.977C501.734 190.702 502.574 191.707 503.097 192.881L509.027 206.206C509.698 207.709 509.809 209.402 509.342 210.979C509.29 211.153 509.232 211.327 509.166 211.5C509.015 211.891 508.843 212.505 508.643 213.215C508.007 215.481 507.215 218.301 505.84 218.913L457.078 245.45C456.247 245.826 455.351 246.033 454.439 246.061C453.528 246.089 452.62 245.937 451.768 245.612C450.916 245.288 450.137 244.798 449.475 244.171C448.813 243.545 448.281 242.793 447.911 241.96L437.096 216.746C436.354 215.07 436.306 213.168 436.964 211.457C437.622 209.747 438.931 208.366 440.605 207.619L494.006 189.358C494.973 188.927 496.027 188.728 497.085 188.777Z" fill="#2F2E41"/>
<path d="M676 421.433H295C294.735 421.433 294.48 421.327 294.293 421.14C294.105 420.952 294 420.698 294 420.433C294 420.168 294.105 419.913 294.293 419.726C294.48 419.538 294.735 419.433 295 419.433H676C676.265 419.433 676.52 419.538 676.707 419.726C676.895 419.913 677 420.168 677 420.433C677 420.698 676.895 420.952 676.707 421.14C676.52 421.327 676.265 421.433 676 421.433Z" fill="#3F3D56"/>
<path d="M191 421.433H1C0.734784 421.433 0.480444 421.327 0.292908 421.14C0.105371 420.952 0 420.698 0 420.433C0 420.168 0.105371 419.913 0.292908 419.726C0.480444 419.538 0.734784 419.433 1 419.433H191C191.265 419.433 191.52 419.538 191.707 419.726C191.895 419.913 192 420.168 192 420.433C192 420.698 191.895 420.952 191.707 421.14C191.52 421.327 191.265 421.433 191 421.433Z" fill="#3F3D56"/>
</g>
<defs>
<clipPath id="clip0_26_1780">
<rect width="677" height="421.444" fill="white"/>
</clipPath>
</defs>
</svg>
