<svg width="314" height="57" viewBox="0 0 314 57" fill="none" xmlns="http://www.w3.org/2000/svg">
<path d="M32.8604 14.6129C32.537 11.8825 31.2257 9.76289 28.9264 8.25398C26.6271 6.74508 23.8069 5.99063 20.4658 5.99063C18.0228 5.99063 15.8852 6.38581 14.053 7.17619C12.2387 7.96657 10.8196 9.05334 9.79569 10.4365C8.78975 11.8197 8.28679 13.3914 8.28679 15.1518C8.28679 16.6248 8.63707 17.8912 9.33763 18.951C10.0562 19.9929 10.9723 20.8641 12.086 21.5647C13.1997 22.2473 14.3673 22.8131 15.5888 23.2622C16.8103 23.6933 17.933 24.0436 18.9569 24.313L24.5614 25.8219C25.9984 26.1992 27.5972 26.7201 29.3575 27.3847C31.1359 28.0494 32.8334 28.9565 34.4501 30.1061C36.0847 31.2378 37.432 32.6928 38.4918 34.4712C39.5516 36.2495 40.0815 38.4321 40.0815 41.0187C40.0815 44.0006 39.3001 46.6951 37.7374 49.1022C36.1925 51.5092 33.9292 53.4223 30.9473 54.8414C27.9834 56.2605 24.3818 56.97 20.1425 56.97C16.1906 56.97 12.7686 56.3323 9.87652 55.0569C7.00242 53.7816 4.73907 52.0032 3.08646 49.7219C1.45181 47.4406 0.526711 44.791 0.311153 41.7732H7.209C7.38863 43.8569 8.08919 45.5814 9.31068 46.9466C10.5501 48.2938 12.1129 49.2997 13.9991 49.9644C15.9032 50.6111 17.951 50.9344 20.1425 50.9344C22.6932 50.9344 24.9835 50.5212 27.0134 49.6949C29.0432 48.8507 30.6509 47.6831 31.8365 46.1921C33.022 44.6832 33.6148 42.9228 33.6148 40.911C33.6148 39.0787 33.1029 37.5878 32.079 36.4381C31.0551 35.2885 29.7078 34.3544 28.0373 33.6359C26.3667 32.9174 24.5614 32.2887 22.6214 31.7498L15.8313 29.8097C11.5202 28.5703 8.10715 26.8009 5.59231 24.5016C3.07748 22.2024 1.82006 19.1935 1.82006 15.4752C1.82006 12.3855 2.65534 9.69103 4.32591 7.39175C6.01445 5.07451 8.2778 3.27819 11.116 2.00281C13.9721 0.709463 17.1606 0.0627903 20.6814 0.0627903C24.2381 0.0627903 27.3996 0.700482 30.1659 1.97586C32.9322 3.23328 35.1237 4.95774 36.7404 7.14925C38.375 9.34075 39.2373 11.8286 39.3271 14.6129H32.8604ZM48.0504 6.74508V0.817242H89.4375V6.74508H72.0851V56H65.4028V6.74508H48.0504ZM95.5674 56H88.5618L108.824 0.817242H115.722L135.984 56H128.979L112.489 9.54733H112.058L95.5674 56ZM98.1541 34.4442H126.392V40.3721H98.1541V34.4442ZM188.338 0.817242V56H181.871L151.801 12.6729H151.262V56H144.58V0.817242H151.047L181.225 44.2521H181.764V0.817242H188.338ZM198.692 6.74508V0.817242H240.079V6.74508H222.726V56H216.044V6.74508H198.692ZM267.609 25.4447V31.3725H243.467V25.4447H267.609Z" fill="white"/>
<path d="M279.66 56V0.817242H312.964V6.74508H286.343V25.3908H311.24V31.3186H286.343V50.0722H313.395V56H279.66Z" fill="#164C64"/>
</svg>
