<svg width="24" height="24" viewBox="0 0 24 24" fill="#797878" xmlns="http://www.w3.org/2000/svg">
<g >
<path d="M12 21.35L10.55 20.03C5.4 15.36 2 12.28 2 8.5C2 5.42 4.42 3 7.5 3C9.24 3 10.91 3.81 12 5.09C13.09 3.81 14.76 3 16.5 3C19.58 3 22 5.42 22 8.5C22 12.28 18.6 15.36 13.45 20.04L12 21.35Z" fill="#797878"/>
<path d="M12 21.35L11.6634 21.7197L11.9987 22.025L12.3352 21.721L12 21.35ZM10.55 20.03L10.8866 19.6603L10.8859 19.6596L10.55 20.03ZM12 5.09L11.6193 5.41417L12 5.8612L12.3807 5.41417L12 5.09ZM13.45 20.04L13.7852 20.411L13.7863 20.41L13.45 20.04ZM12.3366 20.9803L10.8866 19.6603L10.2134 20.3997L11.6634 21.7197L12.3366 20.9803ZM10.8859 19.6596C8.30081 17.3155 6.19567 15.4057 4.73078 13.6147C3.27162 11.8307 2.5 10.2258 2.5 8.5H1.5C1.5 10.5542 2.42838 12.3793 3.95672 14.2478C5.47933 16.1093 7.64919 18.0745 10.2141 20.4004L10.8859 19.6596ZM2.5 8.5C2.5 5.69614 4.69614 3.5 7.5 3.5V2.5C4.14386 2.5 1.5 5.14386 1.5 8.5H2.5ZM7.5 3.5C9.08861 3.5 10.6211 4.24197 11.6193 5.41417L12.3807 4.76583C11.1989 3.37803 9.39139 2.5 7.5 2.5V3.5ZM12.3807 5.41417C13.3789 4.24197 14.9114 3.5 16.5 3.5V2.5C14.6086 2.5 12.8011 3.37803 11.6193 4.76583L12.3807 5.41417ZM16.5 3.5C19.3039 3.5 21.5 5.69614 21.5 8.5H22.5C22.5 5.14386 19.8561 2.5 16.5 2.5V3.5ZM21.5 8.5C21.5 10.2258 20.7284 11.8308 19.2691 13.6161C17.8041 15.4084 15.6989 17.3207 13.1137 19.67L13.7863 20.41C16.3511 18.0793 18.5209 16.1116 20.0434 14.2489C21.5716 12.3792 22.5 10.5542 22.5 8.5H21.5ZM13.1148 19.669L11.6648 20.979L12.3352 21.721L13.7852 20.411L13.1148 19.669Z" fill="#797878"/>
</g>
</svg>
