<svg width="32" height="32" viewBox="0 0 32 32" fill="#fff" xmlns="http://www.w3.org/2000/svg">
<path d="M13.3333 5.33335C8.91501 5.33335 5.33329 8.91508 5.33329 13.3334C5.33329 17.7516 8.91501 21.3334 13.3333 21.3334C17.7516 21.3334 21.3333 17.7516 21.3333 13.3334C21.3333 8.91508 17.7516 5.33335 13.3333 5.33335ZM2.66663 13.3334C2.66663 7.44232 7.44226 2.66669 13.3333 2.66669C19.2243 2.66669 24 7.44232 24 13.3334C24 15.7983 23.1639 18.068 21.7598 19.8742L28.9428 27.0572C29.4635 27.5779 29.4635 28.4221 28.9428 28.9428C28.4221 29.4635 27.5779 29.4635 27.0571 28.9428L19.8742 21.7598C18.0679 23.1639 15.7982 24 13.3333 24C7.44226 24 2.66663 19.2244 2.66663 13.3334Z" fill="#fff"/>
</svg>
